<svg width="110" height="80" viewBox="0 0 110 80" fill="none" xmlns="http://www.w3.org/2000/svg">
<g id="logo">
<path id="Vector" fill-rule="evenodd" clip-rule="evenodd" d="M40.0001 80C62.0915 80 80.0001 62.0914 80.0001 40C80.0001 17.9086 62.0915 0 40.0001 0C17.9086 0 0 17.9086 0 40C0 62.0914 17.9086 80 40.0001 80ZM52.4787 18.6337C53.0861 16.4761 50.9923 15.2003 49.0801 16.5626L22.3863 35.5792C20.3125 37.0566 20.6387 40 22.8763 40H29.9055V39.9456H43.6051L32.4425 43.8842L27.5215 61.3664C26.9141 63.524 29.0077 64.7998 30.9201 63.4374L57.6139 44.421C59.6877 42.9436 59.3613 40 57.1239 40H46.4643L52.4787 18.6337Z" fill="#F15757"/>
</g>
</svg>
